<?xml version="1.0" encoding="UTF-8" standalone="no" ?>
<!DOCTYPE svg PUBLIC "-//W3C//DTD SVG 1.1//EN" "http://www.w3.org/Graphics/SVG/1.1/DTD/svg11.dtd">
<svg xmlns="http://www.w3.org/2000/svg" xmlns:xlink="http://www.w3.org/1999/xlink" version="1.1" width="250.85" height="101.2178" xml:space="preserve">
<desc>Created with Fabric.js 1.6.0-rc.1</desc>
<defs></defs>
<g style="stroke: none; stroke-width: 1; stroke-dasharray: none; stroke-linecap: butt; stroke-linejoin: miter; stroke-miterlimit: 10; fill: none; fill-rule: nonzero; opacity: 1;" transform="translate(10 10) scale(0.45 0.18)" >
  <path d="M 485.517 61.793 H 26.483 C 11.857 61.793 0 73.65 0 88.276 v 335.448 c 0 14.626 11.857 26.483 26.483 26.483 h 459.034 c 14.626 0 26.483 -11.857 26.483 -26.483 V 88.276 C 512 73.65 500.143 61.793 485.517 61.793 z M 441.379 79.448 h 8.828 c 4.875 0 8.828 3.953 8.828 8.828 c 0 4.875 -3.953 8.828 -8.828 8.828 h -8.828 c -4.875 0 -8.828 -3.953 -8.828 -8.828 C 432.552 83.401 436.504 79.448 441.379 79.448 z M 194.207 79.448 h 211.862 c 4.875 0 8.828 3.953 8.828 8.828 c 0 4.875 -3.953 8.828 -8.828 8.828 H 194.207 c -4.875 0 -8.828 -3.953 -8.828 -8.828 C 185.379 83.401 189.332 79.448 194.207 79.448 z M 150.069 79.448 h 8.828 c 4.875 0 8.828 3.953 8.828 8.828 c 0 4.875 -3.953 8.828 -8.828 8.828 h -8.828 c -4.875 0 -8.828 -3.953 -8.828 -8.828 C 141.241 83.401 145.194 79.448 150.069 79.448 z M 114.759 79.448 h 8.828 c 4.875 0 8.828 3.953 8.828 8.828 c 0 4.875 -3.953 8.828 -8.828 8.828 h -8.828 c -4.875 0 -8.828 -3.953 -8.828 -8.828 C 105.931 83.401 109.884 79.448 114.759 79.448 z M 79.448 79.448 c 4.875 0 8.828 3.953 8.828 8.828 c 0 4.875 -3.953 8.828 -8.828 8.828 c -4.875 0 -8.828 -3.953 -8.828 -8.828 C 70.621 83.401 74.573 79.448 79.448 79.448 z M 52.966 79.448 c 4.875 0 8.828 3.953 8.828 8.828 c 0 4.875 -3.953 8.828 -8.828 8.828 s -8.828 -3.953 -8.828 -8.828 C 44.138 83.401 48.09 79.448 52.966 79.448 z M 26.483 79.448 c 4.875 0 8.828 3.953 8.828 8.828 c 0 4.875 -3.953 8.828 -8.828 8.828 s -8.828 -3.953 -8.828 -8.828 C 17.655 83.401 21.608 79.448 26.483 79.448 z M 494.345 423.724 c 0 4.875 -3.953 8.828 -8.828 8.828 H 26.483 c -4.875 0 -8.828 -3.953 -8.828 -8.828 V 123.586 c 0 -4.875 3.953 -8.828 8.828 -8.828 h 459.034 c 4.875 0 8.828 3.953 8.828 8.828 V 423.724 z M 485.517 97.103 h -8.828 c -4.875 0 -8.828 -3.953 -8.828 -8.828 c 0 -4.875 3.953 -8.828 8.828 -8.828 h 8.828 c 4.875 0 8.828 3.953 8.828 8.828 C 494.345 93.151 490.392 97.103 485.517 97.103 z" style="stroke: none; stroke-width: 1; stroke-dasharray: none; stroke-linecap: butt; stroke-linejoin: miter; stroke-miterlimit: 10; fill: #D2DCF0; fill-rule: nonzero; opacity: 1;" transform=" matrix(1 0 0 1 0 0) " stroke-linecap="round" />
  <path d="M 485.517 114.759 H 26.483 c -4.875 0 -8.828 3.953 -8.828 8.828 v 300.138 c 0 4.875 3.953 8.828 8.828 8.828 h 459.034 c 4.875 0 8.828 -3.953 8.828 -8.828 V 123.586 C 494.345 118.711 490.392 114.759 485.517 114.759 z M 459.034 406.069 H 138.86 c -3.054 5.272 -8.743 8.828 -15.274 8.828 h -17.655 c -6.531 0 -12.22 -3.555 -15.274 -8.828 H 73.069 H 52.966 c -4.875 0 -8.828 -3.953 -8.828 -8.828 c 0 -4.875 3.953 -8.828 8.828 -8.828 h 20.104 h 17.588 c 3.054 -5.272 8.743 -8.828 15.274 -8.828 h 17.655 c 6.531 0 12.22 3.555 15.274 8.828 h 320.174 c 4.875 0 8.828 3.953 8.828 8.828 C 467.862 402.116 463.91 406.069 459.034 406.069 z M 467.862 353.103 c 0 4.875 -3.953 8.828 -8.828 8.828 H 52.966 c -4.875 0 -8.828 -3.953 -8.828 -8.828 V 150.069 c 0 -4.875 3.953 -8.828 8.828 -8.828 h 406.069 c 4.875 0 8.828 3.953 8.828 8.828 V 353.103 z" style="stroke: none; stroke-width: 1; stroke-dasharray: none; stroke-linecap: butt; stroke-linejoin: miter; stroke-miterlimit: 10; fill: #453e3e; fill-rule: nonzero; opacity: 1;" transform=" matrix(1 0 0 1 0 0) " stroke-linecap="round" />
  <circle cx="26.488" cy="88.278" r="8.828" style="stroke: none; stroke-width: 1; stroke-dasharray: none; stroke-linecap: butt; stroke-linejoin: miter; stroke-miterlimit: 10; fill: #453e3e; fill-rule: nonzero; opacity: 1;" transform="  matrix(1 0 0 1 0 0) "/>
  <circle cx="52.968" cy="88.278" r="8.828" style="stroke: none; stroke-width: 1; stroke-dasharray: none; stroke-linecap: butt; stroke-linejoin: miter; stroke-miterlimit: 10; fill: #b3b3b3; fill-rule: nonzero; opacity: 1;" transform="  matrix(1 0 0 1 0 0) "/>
  <circle cx="79.44800000000001" cy="88.278" r="8.828" style="stroke: none; stroke-width: 1; stroke-dasharray: none; stroke-linecap: butt; stroke-linejoin: miter; stroke-miterlimit: 10; fill: #453e3e; fill-rule: nonzero; opacity: 1;" transform="  matrix(1 0 0 1 0 0) "/>
  <path d="M 114.759 97.103 h 8.828 c 4.875 0 8.828 -3.953 8.828 -8.828 c 0 -4.875 -3.953 -8.828 -8.828 -8.828 h -8.828 c -4.875 0 -8.828 3.953 -8.828 8.828 C 105.931 93.151 109.884 97.103 114.759 97.103 z" style="stroke: none; stroke-width: 1; stroke-dasharray: none; stroke-linecap: butt; stroke-linejoin: miter; stroke-miterlimit: 10; fill: #453e3e; fill-rule: nonzero; opacity: 1;" transform=" matrix(1 0 0 1 0 0) " stroke-linecap="round" />
  <path d="M 150.069 97.103 h 8.828 c 4.875 0 8.828 -3.953 8.828 -8.828 c 0 -4.875 -3.953 -8.828 -8.828 -8.828 h -8.828 c -4.875 0 -8.828 3.953 -8.828 8.828 C 141.241 93.151 145.194 97.103 150.069 97.103 z" style="stroke: none; stroke-width: 1; stroke-dasharray: none; stroke-linecap: butt; stroke-linejoin: miter; stroke-miterlimit: 10; fill: #453e3e; fill-rule: nonzero; opacity: 1;" transform=" matrix(1 0 0 1 0 0) " stroke-linecap="round" />
  <path d="M 441.379 97.103 h 8.828 c 4.875 0 8.828 -3.953 8.828 -8.828 c 0 -4.875 -3.953 -8.828 -8.828 -8.828 h -8.828 c -4.875 0 -8.828 3.953 -8.828 8.828 C 432.552 93.151 436.504 97.103 441.379 97.103 z" style="stroke: none; stroke-width: 1; stroke-dasharray: none; stroke-linecap: butt; stroke-linejoin: miter; stroke-miterlimit: 10; fill: #453e3e; fill-rule: nonzero; opacity: 1;" transform=" matrix(1 0 0 1 0 0) " stroke-linecap="round" />
  <path d="M 485.517 79.448 h -8.828 c -4.875 0 -8.828 3.953 -8.828 8.828 c 0 4.875 3.953 8.828 8.828 8.828 h 8.828 c 4.875 0 8.828 -3.953 8.828 -8.828 C 494.345 83.401 490.392 79.448 485.517 79.448 z" style="stroke: none; stroke-width: 1; stroke-dasharray: none; stroke-linecap: butt; stroke-linejoin: miter; stroke-miterlimit: 10; fill: #453e3e; fill-rule: nonzero; opacity: 1;" transform=" matrix(1 0 0 1 0 0) " stroke-linecap="round" />
  <path d="M 194.207 97.103 h 211.862 c 4.875 0 8.828 -3.953 8.828 -8.828 c 0 -4.875 -3.953 -8.828 -8.828 -8.828 H 194.207 c -4.875 0 -8.828 3.953 -8.828 8.828 C 185.379 93.151 189.332 97.103 194.207 97.103 z" style="stroke: none; stroke-width: 1; stroke-dasharray: none; stroke-linecap: butt; stroke-linejoin: miter; stroke-miterlimit: 10; fill: #453e3e; fill-rule: nonzero; opacity: 1;" transform=" matrix(1 0 0 1 0 0) " stroke-linecap="round" />
  <path d="M 73.069 388.414 H 52.966 c -4.875 0 -8.828 3.953 -8.828 8.828 c 0 4.875 3.953 8.828 8.828 8.828 h 20.104 c -1.517 -2.605 -2.449 -5.596 -2.449 -8.828 C 70.621 394.009 71.553 391.02 73.069 388.414 z" style="stroke: none; stroke-width: 1; stroke-dasharray: none; stroke-linecap: butt; stroke-linejoin: miter; stroke-miterlimit: 10; fill: #b3b3b3; fill-rule: nonzero; opacity: 1;" transform=" matrix(1 0 0 1 0 0) " stroke-linecap="round" />
  <path d="M 459.034 388.414 H 138.86 c 1.505 2.599 2.381 5.608 2.381 8.828 c 0 3.22 -0.876 6.229 -2.381 8.828 h 320.174 c 4.875 0 8.828 -3.953 8.828 -8.828 C 467.862 392.366 463.91 388.414 459.034 388.414 z" style="stroke: none; stroke-width: 1; stroke-dasharray: none; stroke-linecap: butt; stroke-linejoin: miter; stroke-miterlimit: 10; fill: #b3b3b3; fill-rule: nonzero; opacity: 1;" transform=" matrix(1 0 0 1 0 0) " stroke-linecap="round" />
  <path d="M 90.657 388.414 H 73.069 c -1.517 2.606 -2.449 5.596 -2.449 8.828 c 0 3.232 0.932 6.222 2.449 8.828 h 17.588 c -1.505 -2.599 -2.381 -5.608 -2.381 -8.828 C 88.276 394.022 89.152 391.012 90.657 388.414 z" style="stroke: none; stroke-width: 1; stroke-dasharray: none; stroke-linecap: butt; stroke-linejoin: miter; stroke-miterlimit: 10; fill: #000006; fill-rule: nonzero; opacity: 1;" transform=" matrix(1 0 0 1 0 0) " stroke-linecap="round" />
  <path d="M 105.931 397.241 c 0 -9.75 7.904 -17.655 17.655 -17.655 h -17.655 c -6.531 0 -12.22 3.555 -15.274 8.828 c -1.505 2.599 -2.381 5.608 -2.381 8.828 c 0 3.22 0.876 6.229 2.381 8.828 c 3.054 5.272 8.743 8.828 15.274 8.828 h 17.655 C 113.835 414.897 105.931 406.991 105.931 397.241 z" style="stroke: none; stroke-width: 1; stroke-dasharray: none; stroke-linecap: butt; stroke-linejoin: miter; stroke-miterlimit: 10; fill: #b3b3b3; fill-rule: nonzero; opacity: 1;" transform=" matrix(1 0 0 1 0 0) " stroke-linecap="round" />
  <path d="M 138.86 388.414 c -3.054 -5.272 -8.743 -8.828 -15.274 -8.828 c -9.751 0 -17.655 7.905 -17.655 17.655 c 0 9.75 7.904 17.655 17.655 17.655 c 6.531 0 12.22 -3.555 15.274 -8.828 c 1.505 -2.599 2.381 -5.608 2.381 -8.828 C 141.241 394.022 140.365 391.012 138.86 388.414 z" style="stroke: none; stroke-width: 1; stroke-dasharray: none; stroke-linecap: butt; stroke-linejoin: miter; stroke-miterlimit: 10; fill: #b3b3b3; fill-rule: nonzero; opacity: 1;" transform=" matrix(1 0 0 1 0 0) " stroke-linecap="round" />
  <path d="M 459.034 141.241 H 52.966 c -4.875 0 -8.828 3.953 -8.828 8.828 v 203.034 c 0 4.875 3.953 8.828 8.828 8.828 h 406.069 c 4.875 0 8.828 -3.953 8.828 -8.828 V 150.069 C 467.862 145.194 463.91 141.241 459.034 141.241 z M 310.628 261.145 l -82.406 46.991 c -6.941 3.958 -15.403 -1.294 -15.403 -9.56 v -93.983 c 0 -8.266 8.462 -13.517 15.403 -9.56 l 82.406 46.991 C 317.866 246.154 317.866 257.018 310.628 261.145 z" style="stroke: none; stroke-width: 1; stroke-dasharray: none; stroke-linecap: butt; stroke-linejoin: miter; stroke-miterlimit: 10; fill: #b3b3b3; fill-rule: nonzero; opacity: 1;" transform=" matrix(1 0 0 1 0 0) " stroke-linecap="round" />
  <path d="M 310.628 242.027 l -82.406 -46.991 c -6.941 -3.958 -15.403 1.294 -15.403 9.56 v 93.983 c 0 8.266 8.462 13.517 15.403 9.56 l 82.406 -46.991 C 317.866 257.018 317.866 246.154 310.628 242.027 z" style="stroke: none; stroke-width: 1; stroke-dasharray: none; stroke-linecap: butt; stroke-linejoin: miter; stroke-miterlimit: 10; fill: #b3b3b3; fill-rule: nonzero; opacity: 1;" transform=" matrix(1 0 0 1 0 0) " stroke-linecap="round" />
</g>
  <g transform="translate(125.52 59.16) scale(0.8 0.8)">
   <text font-family="Grunja" font-size="40" font-weight="bold" style="stroke: none; stroke-width: 1; stroke-dasharray: none; stroke-linecap: butt; stroke-linejoin: miter; stroke-miterlimit: 10; fill: #000000; fill-rule: nonzero; opacity: 1;" ><tspan x="-115.26" y="8.98" style="stroke: none; stroke-width: 0; stroke-dasharray: none; stroke-linecap: butt; stroke-linejoin: miter; stroke-miterlimit: 4; fill: #000000; fill-rule: ; opacity: 1;">I</tspan><tspan x="-104.58" y="8.98" style="stroke: none; stroke-width: 0; stroke-dasharray: none; stroke-linecap: butt; stroke-linejoin: miter; stroke-miterlimit: 4; fill: #000000; fill-rule: ; opacity: 1;">n</tspan><tspan x="-82.54" y="8.98" style="stroke: none; stroke-width: 0; stroke-dasharray: none; stroke-linecap: butt; stroke-linejoin: miter; stroke-miterlimit: 4; fill: #000000; fill-rule: ; opacity: 1;">s</tspan><tspan x="-60.46" y="8.98" style="stroke: none; stroke-width: 0; stroke-dasharray: none; stroke-linecap: butt; stroke-linejoin: miter; stroke-miterlimit: 4; fill: #000000; fill-rule: ; opacity: 1;">t</tspan><tspan x="-46.14" y="8.98" style="stroke: none; stroke-width: 0; stroke-dasharray: none; stroke-linecap: butt; stroke-linejoin: miter; stroke-miterlimit: 4; fill: #000000; fill-rule: ; opacity: 1;">a</tspan><tspan x="-20.02" y="8.98" style="stroke: none; stroke-width: 0; stroke-dasharray: none; stroke-linecap: butt; stroke-linejoin: miter; stroke-miterlimit: 4; fill: #000000; fill-rule: ; opacity: 1;">m</tspan><tspan x="12.02" y="8.98" style="stroke: none; stroke-width: 0; stroke-dasharray: none; stroke-linecap: butt; stroke-linejoin: miter; stroke-miterlimit: 4; fill: #000000; fill-rule: ; opacity: 1;">o</tspan><tspan x="36.3" y="8.98" style="stroke: none; stroke-width: 0; stroke-dasharray: none; stroke-linecap: butt; stroke-linejoin: miter; stroke-miterlimit: 4; fill: #000000; fill-rule: ; opacity: 1;">v</tspan><tspan x="55.86" y="8.98" style="stroke: none; stroke-width: 0; stroke-dasharray: none; stroke-linecap: butt; stroke-linejoin: miter; stroke-miterlimit: 4; fill: #000000; fill-rule: ; opacity: 1;">i</tspan><tspan x="66.14" y="8.98" style="stroke: none; stroke-width: 0; stroke-dasharray: none; stroke-linecap: butt; stroke-linejoin: miter; stroke-miterlimit: 4; fill: #000000; fill-rule: ; opacity: 1;">e</tspan><tspan x="93.18" y="8.98" style="stroke: none; stroke-width: 0; stroke-dasharray: none; stroke-linecap: butt; stroke-linejoin: miter; stroke-miterlimit: 4; fill: #000000; fill-rule: ; opacity: 1;">s</tspan></text>
 </g>
</svg>